<?xml version="1.0" encoding="utf-8"?>
<!-- Generator: Adobe Illustrator 25.1.0, SVG Export Plug-In . SVG Version: 6.00 Build 0)  -->
<svg version="1.1" xmlns="http://www.w3.org/2000/svg" xmlns:xlink="http://www.w3.org/1999/xlink" x="0px" y="0px"
	 viewBox="0 0 98 98" style="enable-background:new 0 0 98 98;" xml:space="preserve">
<style type="text/css">
	.st0{fill:#0063BC;}
	.st1{display:none;}
	.st2{display:inline;}
</style>
<g id="Capa_1">
</g>
<g id="Capa_6">
	<g transform="translate(0 -5.115)">
		<g transform="translate(73.363 56.207)">
			<path class="st0" d="M0.51,0.06c-0.61,0-1.1,0.49-1.1,1.1c-0.02,0.77-0.66,1.38-1.43,1.36C-2.76,2.5-3.36,1.9-3.38,1.16
				c0-0.61-0.49-1.1-1.1-1.1c-0.61,0-1.1,0.49-1.1,1.1c0,1.98,1.61,3.59,3.59,3.59s3.59-1.61,3.59-3.59
				C1.61,0.55,1.12,0.06,0.51,0.06L0.51,0.06z"/>
		</g>
		<g transform="translate(0 5.115)">
			<path class="st0" d="M84.19,51.33l-3.09-0.99c-0.4-0.13-0.71-0.44-0.84-0.84c-0.65-2.07-1.64-4.03-2.92-5.78
				c-0.6-0.81-1.25-1.58-1.95-2.3c0.46-2.04,0.69-4.13,0.67-6.22c-0.05-2.8-0.61-4.44-1.71-5.02c-0.59-0.31-2.41-1.26-12.21,3.23
				c-0.23,0.1-0.45,0.23-0.65,0.38c-0.66-0.18-1.34-0.34-2.02-0.49c-0.08-0.02-0.17-0.03-0.25-0.05c0.8-1.75,1.26-3.64,1.34-5.57
				c0.02-0.61-0.45-1.12-1.06-1.14c-0.6-0.02-1.1,0.44-1.14,1.04c-0.23,5.15-3.53,9.66-8.36,11.43c-2.93-0.41-5.91-0.41-8.85,0
				c-6.63-2.45-10.02-9.81-7.57-16.44s9.81-10.02,16.44-7.57c3.04,1.12,5.54,3.35,6.99,6.25c0.27,0.54,0.93,0.76,1.48,0.49
				s0.76-0.93,0.49-1.48l0,0c-3.73-7.4-12.75-10.37-20.15-6.64S28.47,26.36,32.2,33.75c1.23,2.44,3.11,4.5,5.43,5.96l0,0
				c-0.68,0.18-1.36,0.38-2.03,0.6c-0.57,0.2-0.88,0.82-0.68,1.4c0.2,0.57,0.81,0.87,1.38,0.69c6.03-2,12.55-2,18.59,0
				c0.58,0.19,1.2-0.13,1.38-0.71c0.18-0.57-0.12-1.18-0.69-1.38c-0.67-0.22-1.35-0.42-2.03-0.6l0,0c1.82-1.14,3.38-2.66,4.56-4.46
				c0.31,0.06,0.6,0.12,0.9,0.18c0.39,0.09,0.79,0.18,1.18,0.27c-0.01,0.05-0.02,0.1-0.04,0.14c-0.54,2.2-0.51,4.5,0.1,6.68
				c0.5,1.64,1.52,3.08,2.91,4.1c1.58,1.13,3.47,1.73,5.41,1.72c1.22,0.03,2.42-0.25,3.51-0.81c1.03-0.58,1.9-1.82,2.58-3.67
				c0.32,0.37,0.62,0.75,0.9,1.14c1.14,1.56,2.02,3.3,2.61,5.15c0.34,1.08,1.18,1.93,2.26,2.28l3.09,0.99
				c0.81,0.26,1.36,1.01,1.36,1.86v5.13c0,0.85-0.55,1.6-1.36,1.86l-4.98,1.6c-0.8,0.26-1.48,0.81-1.9,1.54
				c-2.19,3.6-5.36,6.48-9.15,8.32c-0.47,0.24-0.81,0.69-0.9,1.21l-1.6,8.45c-0.04,0.23-0.25,0.4-0.49,0.4h-5.19
				c-0.24,0-0.44-0.17-0.49-0.4l-0.88-4.67c-0.17-0.92-1.04-1.53-1.96-1.39c-2.27,0.34-4.55,0.51-6.85,0.51
				c-1.68,0-3.36-0.09-5.04-0.28c-0.9-0.1-1.73,0.51-1.9,1.4l-0.84,4.44c-0.04,0.23-0.25,0.4-0.49,0.4h-5.19
				c-0.24,0-0.44-0.17-0.49-0.41l-1.54-7.98c-0.1-0.51-0.42-0.95-0.89-1.2c-7.01-3.74-10.72-10-10.72-18.09
				c-0.08-3.75,0.83-7.46,2.66-10.74c1.72-2.91,4.19-5.32,7.14-6.97c0.53-0.3,0.71-0.98,0.4-1.5c-0.3-0.53-0.98-0.71-1.5-0.4l0,0
				c-5.82,3.22-9.76,9.02-10.61,15.62l0,0c-0.11-0.01-0.21-0.02-0.32-0.03c0.02-0.75-0.12-1.5-0.4-2.19
				c-0.52-1.49-1.79-2.59-3.34-2.91c-1.12-0.14-2.22,0.35-2.86,1.27c-1.05,1.39-0.88,2.48-0.55,3.16c0.55,1.14,1.98,1.95,4.34,2.45
				c-0.06,0.1-0.14,0.19-0.21,0.29c-0.97,1.31-2.48,2.11-4.11,2.17c-0.62,0.02-1.12,0.53-1.12,1.15v0.01c0,0.62,0.49,1.12,1.1,1.15
				c0.08,0,0.16,0.01,0.25,0.01c1.35,0,3.52-0.5,5.6-3.11c0.32-0.4,0.59-0.83,0.8-1.3c0.21,0.02,0.41,0.04,0.6,0.06l0,0
				c-0.04,0.6-0.06,1.2-0.06,1.81c-0.08,4.27,1.04,8.47,3.24,12.13c2.08,3.29,4.99,5.97,8.44,7.79l1.49,7.76
				c0.24,1.27,1.35,2.19,2.64,2.19h5.19c1.29,0,2.4-0.92,2.64-2.19l0.76-4.01c1.62,0.17,3.24,0.25,4.86,0.25
				c2.25,0,4.5-0.15,6.73-0.47l0.8,4.23c0.24,1.27,1.35,2.19,2.64,2.19h5.19c1.29,0,2.4-0.92,2.64-2.19l1.55-8.23
				c4.07-2.03,7.49-5.17,9.84-9.07c0.15-0.26,0.38-0.46,0.67-0.55l4.98-1.6c1.72-0.55,2.89-2.15,2.88-3.95v-5.13
				C87.07,53.48,85.91,51.88,84.19,51.33z M73.69,38.27c-0.42,3.62-1.56,6.71-2.7,7.36c-1.3,0.73-4.29,0.88-6.53-0.77
				s-3-4.61-2.16-8.56l0,0c0.09-0.41,0.37-0.75,0.75-0.92c5.5-2.52,8.67-3.34,9.85-3.34c0.13-0.01,0.27,0.01,0.4,0.05
				C73.65,32.48,74.12,34.62,73.69,38.27z M14.65,50.47c-0.11-0.23,0.15-0.65,0.32-0.87c0.15-0.25,0.41-0.41,0.71-0.43
				c0.04,0,0.07,0,0.11,0.01c0.75,0.23,1.35,0.81,1.59,1.56c0.13,0.33,0.21,0.68,0.23,1.04C16.08,51.45,14.9,51,14.65,50.47z"/>
		</g>
		<g transform="translate(39.035 14.322)">
			<path class="st0" d="M7.61,16.53V12.6c1.36,0.1,1.86,0.72,2.32,0.72c0.58,0,0.85-0.74,0.85-1.1c0-0.95-1.86-1.36-3.18-1.39v-0.52
				c0-0.23-0.29-0.45-0.58-0.45c-0.28-0.03-0.53,0.17-0.56,0.45v0.56c-1.84,0.19-3.68,1.16-3.68,3.6c0,2.48,1.94,3.18,3.68,3.8v4.55
				c-1.98-0.15-2.5-1.51-3.14-1.51c-0.48,0-0.89,0.64-0.89,1.1c0,0.95,1.63,2.25,4.03,2.29l0,0v0.6c0.03,0.28,0.28,0.47,0.56,0.45
				c0.29,0,0.58-0.21,0.58-0.45v-0.66c2.07-0.12,3.65-1.9,3.53-3.97c0-0.01,0-0.01,0-0.02C11.14,18,9.3,17.15,7.61,16.53z
				 M6.59,16.16c-1.03-0.39-1.86-0.79-1.86-1.9c0-1.01,0.77-1.49,1.86-1.63V16.16z M7.5,22.77v-4.09c0.95,0.41,1.7,0.95,1.7,2.17
				C9.25,21.85,8.49,22.7,7.5,22.77L7.5,22.77z"/>
		</g>
	</g>
</g>
<g id="Capa_5" class="st1">
	<g class="st2">
		<g transform="translate(11.827 16.696)">
			<path class="st0" d="M28.3,24.9c-3.41,0-6.17,2.76-6.17,6.17s2.76,6.17,6.17,6.17c0.68-0.08,1.17-0.69,1.09-1.37
				c-0.07-0.57-0.52-1.03-1.09-1.09c-2.04,0-3.7-1.66-3.7-3.7s1.66-3.7,3.7-3.7c2.04,0,3.7,1.66,3.7,3.7
				c-0.08,0.68,0.41,1.3,1.09,1.37c0.68,0.08,1.3-0.41,1.37-1.09c0.01-0.09,0.01-0.19,0-0.28C34.47,27.66,31.71,24.9,28.3,24.9z"/>
		</g>
		<g transform="translate(15.305 13.914)">
			<path class="st0" d="M30.99,22.75c-3.4,0-6.16,2.76-6.17,6.17c-0.08,0.68,0.41,1.3,1.09,1.37c0.68,0.08,1.3-0.41,1.37-1.09
				c0.01-0.09,0.01-0.19,0-0.28c0-2.04,1.66-3.7,3.7-3.69c2.04,0,3.69,1.66,3.69,3.69c-0.08,0.68,0.41,1.3,1.09,1.37
				c0.68,0.08,1.3-0.41,1.37-1.09c0.01-0.09,0.01-0.19,0-0.28C37.15,25.51,34.39,22.75,30.99,22.75z"/>
		</g>
		<g transform="translate(20.175 11.827)">
			<path class="st0" d="M34.75,21.14c-3.4,0-6.16,2.76-6.17,6.17c-0.08,0.68,0.41,1.3,1.09,1.37c0.68,0.08,1.3-0.41,1.37-1.09
				c0.01-0.09,0.01-0.19,0-0.28c0-2.04,1.66-3.7,3.7-3.69c2.04,0,3.69,1.66,3.69,3.69c-0.08,0.68,0.41,1.3,1.09,1.37
				s1.3-0.41,1.37-1.09c0.01-0.09,0.01-0.19,0-0.28C40.91,23.9,38.16,21.14,34.75,21.14z"/>
		</g>
		<g transform="translate(22.957 15.305)">
			<path class="st0" d="M36.9,23.83c-3.4,0-6.16,2.76-6.17,6.17c-0.08,0.68,0.41,1.3,1.09,1.37c0.68,0.08,1.3-0.41,1.37-1.09
				c0.01-0.09,0.01-0.19,0-0.28c0-2.04,1.66-3.7,3.7-3.7s3.7,1.66,3.7,3.7c0.08,0.68,0.69,1.17,1.37,1.09
				c0.57-0.07,1.03-0.52,1.09-1.09C43.06,26.59,40.31,23.83,36.9,23.83z"/>
		</g>
		<g transform="translate(8.348 34.784)">
			<path class="st0" d="M62.61,38.88H20.69c-0.69,0-1.24,0.56-1.24,1.24l0,0v5.84c0,2.9,2.36,5.26,5.26,5.26h33.87
				c2.9,0,5.26-2.36,5.26-5.26v-5.84C63.85,39.43,63.29,38.88,62.61,38.88z M61.37,45.95c0,1.54-1.25,2.79-2.79,2.79H24.7
				c-1.54,0-2.79-1.25-2.79-2.79v-4.61h39.46L61.37,45.95z"/>
		</g>
		<g transform="translate(18.088 37.567)">
			<path class="st0" d="M35.61,41.03h-7.4c-0.68-0.08-1.3,0.41-1.37,1.09c-0.08,0.68,0.41,1.3,1.09,1.37c0.09,0.01,0.19,0.01,0.28,0
				h7.4c0.68,0.08,1.3-0.41,1.37-1.09s-0.41-1.3-1.09-1.37C35.8,41.02,35.7,41.02,35.61,41.03z"/>
		</g>
		<g transform="translate(25.74 37.567)">
			<path class="st0" d="M39.05,41.03h-4.93c-0.68,0.08-1.17,0.69-1.09,1.37c0.07,0.57,0.52,1.03,1.09,1.09h4.93
				c0.68,0.08,1.3-0.41,1.37-1.09s-0.41-1.3-1.09-1.37C39.24,41.02,39.15,41.02,39.05,41.03L39.05,41.03z"/>
		</g>
		<g transform="translate(11.827 37.567)">
			<path class="st0" d="M28.3,41.03h-4.93c-0.68,0.08-1.17,0.69-1.09,1.37c0.07,0.57,0.52,1.03,1.09,1.09h4.93
				c0.68,0.08,1.3-0.41,1.37-1.09c0.08-0.68-0.41-1.3-1.09-1.37C28.49,41.02,28.4,41.02,28.3,41.03z"/>
		</g>
		<g transform="translate(8.348)">
			<path class="st0" d="M58.58,12H24.71c-2.9,0-5.26,2.36-5.26,5.26v5.84c0,0.69,0.56,1.24,1.24,1.24h41.93
				c0.69,0,1.24-0.56,1.24-1.24v-5.84C63.86,14.35,61.5,12,58.58,12C58.59,12,58.59,12,58.58,12z M61.38,21.86H21.92v-4.61
				c0-1.54,1.25-2.79,2.79-2.79h33.87c1.54,0,2.79,1.25,2.79,2.79L61.38,21.86L61.38,21.86z"/>
		</g>
		<g transform="translate(16.696 2.783)">
			<path class="st0" d="M39.46,14.15H27.14c-0.68,0.08-1.17,0.69-1.09,1.37c0.07,0.57,0.52,1.03,1.09,1.09h12.33
				c0.68-0.08,1.17-0.69,1.09-1.37C40.5,14.67,40.05,14.22,39.46,14.15L39.46,14.15z"/>
		</g>
		<g transform="translate(8.348 5.565)">
			<path class="st0" d="M62.61,16.3H20.69c-0.69,0-1.24,0.56-1.24,1.24v51.79c0,0.69,0.56,1.24,1.24,1.24h41.93
				c0.69,0,1.24-0.56,1.24-1.24V17.53C63.86,16.85,63.3,16.3,62.61,16.3C62.61,16.3,62.61,16.3,62.61,16.3z M61.37,68.1H21.92V18.77
				h39.46L61.37,68.1L61.37,68.1z"/>
		</g>
		<g transform="translate(35.475 15.305)">
			<path class="st0" d="M42.84,24.72c-0.26-0.63-0.99-0.93-1.62-0.67c-0.53,0.22-0.84,0.79-0.75,1.36c1.57,5.42,1.57,11.18,0,16.6
				c-0.19,0.65,0.19,1.34,0.84,1.53c0.12,0.03,0.23,0.05,0.35,0.05c0.55,0,1.03-0.36,1.18-0.89C44.55,36.83,44.55,30.59,42.84,24.72
				L42.84,24.72z"/>
		</g>
		<g transform="translate(4.179 15.304)">
			<path class="st0" d="M19.88,42.01c-1.57-5.42-1.57-11.18,0-16.6c0.12-0.68-0.34-1.32-1.01-1.43c-0.57-0.1-1.13,0.21-1.36,0.75
				c-1.7,5.87-1.7,12.11,0,17.98c0.16,0.52,0.64,0.88,1.18,0.89c0.12,0,0.24-0.02,0.35-0.05C19.69,43.33,20.06,42.66,19.88,42.01z"
				/>
		</g>
		<g transform="translate(0 12.522)">
			<path class="st0" d="M15.47,36.47c-0.1-4.47,0.7-8.91,2.36-13.06c0.21-0.65-0.15-1.35-0.81-1.56c-0.55-0.18-1.15,0.05-1.45,0.55
				c-3.43,9.07-3.43,19.07,0,28.14c0.2,0.44,0.64,0.73,1.13,0.73c0.17,0,0.35-0.04,0.5-0.11c0.62-0.28,0.9-1.01,0.62-1.63
				C16.16,45.39,15.36,40.94,15.47,36.47z"/>
		</g>
		<g transform="translate(38.958 12.522)">
			<path class="st0" d="M45.47,22.41c-0.35-0.59-1.11-0.79-1.7-0.44c-0.5,0.29-0.73,0.89-0.55,1.45c3.14,8.42,3.14,17.7,0,26.12
				c-0.27,0.62,0,1.35,0.62,1.63c0.16,0.07,0.33,0.11,0.5,0.11c0.49,0,0.93-0.29,1.13-0.73C48.9,41.48,48.9,31.47,45.47,22.41
				L45.47,22.41z"/>
		</g>
		<g transform="translate(13.914 28.523)">
			<path class="st0" d="M47.18,34.04h-22.2c-0.68-0.08-1.3,0.41-1.37,1.09c-0.08,0.68,0.41,1.3,1.09,1.37
				c0.09,0.01,0.19,0.01,0.28,0h22.2c0.68,0.08,1.3-0.41,1.37-1.09c0.08-0.68-0.41-1.3-1.09-1.37
				C47.37,34.03,47.27,34.03,47.18,34.04L47.18,34.04z"/>
		</g>
		<g transform="translate(11.131 25.74)">
			<path class="st0" d="M54.9,31.89H22.83c-0.69,0-1.24,0.56-1.24,1.24l0,0v9.86c0,0.69,0.56,1.24,1.24,1.24c0,0,0,0,0,0H54.9
				c0.69,0,1.24-0.56,1.24-1.24l0,0v-9.86C56.14,32.44,55.58,31.89,54.9,31.89C54.9,31.89,54.9,31.89,54.9,31.89z M53.66,41.75
				h-29.6v-7.4h29.6V41.75z"/>
		</g>
	</g>
</g>
<g id="Capa_4" class="st1">
	<g transform="translate(-0.019)" class="st2">
		<g transform="translate(0.019)">
			<path class="st0" d="M77.95,22.95C63.69,8.71,40.59,8.72,26.35,22.98c-13.29,13.31-14.29,34.54-2.3,49.04
				c-1.17,2.36-3.05,5.11-5.85,6.48c-1.7,0.84-2.39,2.89-1.56,4.58c0.49,1,1.44,1.7,2.55,1.87c0.96,0.15,1.92,0.22,2.89,0.22
				c4.62-0.02,9.12-1.51,12.84-4.26c17.75,9.54,39.87,2.88,49.41-14.87C91.95,51.85,89.36,34.33,77.95,22.95z M75,71.6
				c-10.4,10.41-26.53,12.48-39.23,5.03c-0.82-0.48-1.86-0.35-2.53,0.32c-0.06,0.03-0.12,0.07-0.17,0.12c-3.12,2.51-7,3.89-11,3.92
				h-0.02c2.77-2.19,4.93-5.05,6.26-8.32c0.18-0.42,0.22-0.89,0.11-1.34c-0.05-0.43-0.23-0.84-0.51-1.17
				c-11.83-13.37-10.57-33.8,2.8-45.63s33.8-10.57,45.63,2.8C87.66,40.13,87.07,59.52,75,71.6L75,71.6z"/>
			<circle class="st0" cx="52.15" cy="48.75" r="2.56"/>
			<circle class="st0" cx="65.36" cy="48.75" r="2.56"/>
			<circle class="st0" cx="38.94" cy="48.75" r="2.56"/>
		</g>
	</g>
</g>
<g id="Capa_2" class="st1">
	<g transform="translate(0 -64)" class="st2">
		<g transform="translate(0 64)">
			<path class="st0" d="M89.83,12.37H8.17C3.66,12.38,0.01,16.03,0,20.54v49c0.01,4.51,3.66,8.16,8.17,8.17h34.71v4.08H30.62
				c-1.13-0.02-2.06,0.87-2.09,2c-0.02,1.13,0.87,2.06,2,2.09c0.03,0,0.06,0,0.09,0h36.75c1.13,0.02,2.06-0.87,2.09-2
				c0.02-1.13-0.87-2.06-2-2.09c-0.03,0-0.06,0-0.09,0H55.12V77.7h34.71c4.51-0.01,8.16-3.66,8.17-8.17v-49
				C97.99,16.03,94.34,12.37,89.83,12.37z M51.04,81.79h-4.08V77.7h4.08V81.79z M93.91,69.54c0,2.25-1.83,4.08-4.08,4.08H8.17
				c-2.25,0-4.08-1.83-4.08-4.08v-49c0-2.25,1.83-4.08,4.08-4.08h81.66c2.25,0,4.08,1.83,4.08,4.08L93.91,69.54z"/>
		</g>
	</g>
</g>
<g id="Capa_3" class="st1">
	<g transform="translate(0 -45.5)" class="st2">
		<g transform="translate(18.263 74.399)">
			<g transform="translate(0 0)">
				<ellipse class="st0" cx="30.88" cy="50.37" rx="5.26" ry="6.31"/>
			</g>
		</g>
		<g transform="translate(0 45.5)">
			<path class="st0" d="M92.19,30.82C70.09,7,32.87,5.6,9.04,27.7c-1.08,1-2.12,2.04-3.12,3.12c-1.3,1.39-1.22,3.57,0.18,4.87
				s3.57,1.22,4.87-0.18l0,0c19.51-21.04,52.38-22.28,73.42-2.77c0.96,0.89,1.89,1.82,2.77,2.77c1.3,1.39,3.48,1.47,4.87,0.18
				s1.47-3.48,0.18-4.87l0,0H92.19z"/>
		</g>
		<g transform="translate(5.977 55.001)">
			<path class="st0" d="M73.58,35.54C57.53,18.7,30.86,18.05,14.02,34.1c-0.49,0.47-0.97,0.95-1.44,1.44
				c-1.34,1.35-1.33,3.53,0.02,4.87c1.35,1.34,3.53,1.33,4.87-0.02c13.37-14.14,35.68-14.77,49.82-1.39
				c0.48,0.45,0.94,0.92,1.39,1.39c1.34,1.35,3.52,1.36,4.87,0.02C74.91,39.07,74.92,36.89,73.58,35.54
				C73.58,35.54,73.58,35.54,73.58,35.54z"/>
		</g>
		<g transform="translate(12.369 64.575)">
			<path class="st0" d="M53.41,40.22c-4.47-4.43-10.46-7-16.75-7.19H36.4c-6.29,0.19-12.28,2.76-16.75,7.19
				c-1.29,1.39-1.22,3.57,0.18,4.86c1.31,1.22,3.33,1.23,4.66,0.03c3.18-3.16,7.43-5.01,11.91-5.2h0.25
				c4.48,0.19,8.72,2.04,11.91,5.2c1.41,1.28,3.58,1.17,4.86-0.23c1.2-1.32,1.19-3.35-0.03-4.66H53.41z"/>
		</g>
	</g>
</g>
</svg>
